<svg xmlns="http://www.w3.org/2000/svg" viewBox="0 0 256 256" role="img" aria-label="MagicTheDrinkering Icon">
  <defs>
    <linearGradient id="bg" x1="26" y1="18" x2="226" y2="238" gradientUnits="userSpaceOnUse">
      <stop offset="0" stop-color="#160f2a"/>
      <stop offset="0.52" stop-color="#2f1d53"/>
      <stop offset="1" stop-color="#6a35b1"/>
    </linearGradient>
    <linearGradient id="cardEdge" x1="56" y1="50" x2="156" y2="176" gradientUnits="userSpaceOnUse">
      <stop offset="0" stop-color="#f5e3b4"/>
      <stop offset="1" stop-color="#b9872f"/>
    </linearGradient>
    <linearGradient id="cardFace" x1="68" y1="58" x2="136" y2="170" gradientUnits="userSpaceOnUse">
      <stop offset="0" stop-color="#faedc9"/>
      <stop offset="1" stop-color="#d9b86f"/>
    </linearGradient>
    <linearGradient id="bottle" x1="150" y1="62" x2="190" y2="208" gradientUnits="userSpaceOnUse">
      <stop offset="0" stop-color="#7f5a24"/>
      <stop offset="1" stop-color="#1a1005"/>
    </linearGradient>
    <linearGradient id="beer" x1="156" y1="86" x2="156" y2="180" gradientUnits="userSpaceOnUse">
      <stop offset="0" stop-color="#ffd05f"/>
      <stop offset="1" stop-color="#a35b08"/>
    </linearGradient>
  </defs>

  <rect x="12" y="12" width="232" height="232" rx="46" fill="url(#bg)"/>

  <circle cx="182" cy="70" r="20" fill="#9a6aff" opacity=".16"/>
  <circle cx="70" cy="190" r="28" fill="#80dfff" opacity=".08"/>

  <g transform="rotate(-8 107 122)">
    <rect x="56" y="46" width="92" height="126" rx="16" fill="url(#cardEdge)"/>
    <rect x="64" y="54" width="76" height="110" rx="12" fill="url(#cardFace)"/>
    <path d="M81 90c8-11 17-17 27-17s19 6 27 17" fill="none" stroke="#efc75d" stroke-width="9" stroke-linecap="round"/>
    <circle cx="104" cy="110" r="16" fill="none" stroke="#efc75d" stroke-width="8"/>
    <path d="M80 145h48" stroke="#b9872f" stroke-width="8" stroke-linecap="round" opacity=".55"/>
    <path d="M98 84l6-10 6 10 11 2-8 8 2 10-11-6-11 6 2-10-8-8z" fill="#fff1bc" opacity=".95"/>
  </g>

  <g>
    <rect x="156" y="56" width="18" height="24" rx="5" fill="#4b2f0f"/>
    <rect x="152" y="48" width="26" height="10" rx="4" fill="#ffe9a5"/>
    <path d="M145 80h40l10 102c1 14-10 26-24 26h-12c-14 0-25-12-24-26z" fill="url(#bottle)"/>
    <path d="M151 92h28l8 84c1 10-7 18-17 18h-10c-10 0-18-8-17-18z" fill="url(#beer)"/>
    <rect x="150" y="132" width="30" height="22" rx="7" fill="#f7e7bc"/>
    <rect x="156" y="138" width="18" height="10" rx="3" fill="#d4b067" opacity=".9"/>
    <path d="M164 114l4-7 4 7 8 1-6 6 2 7-8-4-8 4 2-7-6-6z" fill="#fff4cb"/>
  </g>

  <rect x="12" y="12" width="232" height="232" rx="46" fill="none" stroke="#ffffff" stroke-opacity=".08"/>
</svg>
